<?xml version="1.0" encoding="UTF-8" standalone="no"?>
<svg
   xmlns:dc="http://purl.org/dc/elements/1.1/"
   xmlns:cc="http://creativecommons.org/ns#"
   xmlns:rdf="http://www.w3.org/1999/02/22-rdf-syntax-ns#"
   xmlns:svg="http://www.w3.org/2000/svg"
   xmlns="http://www.w3.org/2000/svg"
   xmlns:sodipodi="http://sodipodi.sourceforge.net/DTD/sodipodi-0.dtd"
   xmlns:inkscape="http://www.inkscape.org/namespaces/inkscape"
   width="600mm"
   height="400mm"
   viewBox="0 0 600 400"
   version="1.1"
   id="svg961"
   inkscape:version="1.0.2 (e86c870879, 2021-01-15)"
   sodipodi:docname="600x400-longer.svg">
  <defs
     id="defs955" />
  <sodipodi:namedview
     id="base"
     pagecolor="#ffffff"
     bordercolor="#666666"
     borderopacity="1.0"
     inkscape:pageopacity="0.0"
     inkscape:pageshadow="2"
     inkscape:zoom="0.42521683"
     inkscape:cx="152.34883"
     inkscape:cy="748.97454"
     inkscape:document-units="mm"
     inkscape:current-layer="layer1"
     inkscape:document-rotation="0"
     showgrid="true"
     inkscape:window-width="1920"
     inkscape:window-height="1032"
     inkscape:window-x="0"
     inkscape:window-y="0"
     inkscape:window-maximized="1">
    <inkscape:grid
       type="xygrid"
       id="grid2141"
       units="mm"
       spacingx="4"
       spacingy="4"
       originx="0"
       originy="0" />
  </sodipodi:namedview>
  <metadata
     id="metadata958">
    <rdf:RDF>
      <cc:Work
         rdf:about="">
        <dc:format>image/svg+xml</dc:format>
        <dc:type
           rdf:resource="http://purl.org/dc/dcmitype/StillImage" />
        <dc:title></dc:title>
      </cc:Work>
    </rdf:RDF>
  </metadata>
  <g
     inkscape:label="Layer 1"
     inkscape:groupmode="layer"
     id="layer1">
    <g
       id="layer1-7"
       transform="translate(39.324999,-122.49979)"
       style="fill:#000000;stroke:none">
      <path
         id="rect1265"
         style="fill:#000000;fill-opacity:1;stroke:none;stroke-width:0.1;stroke-miterlimit:3.59854;stroke-dasharray:none;stroke-dashoffset:5;stroke-opacity:1"
         d="m 44.675001,126.49979 v 44.00041 h 18.324988 v -4.00027 h 4.000262 v 4.00027 h 3.999759 v -4.00027 h 4.000289 v 4.00027 h 3.999759 v -4.00027 h 4.000261 v 4.00027 h 3.99976 v -4.00027 h 4.000261 v 4.00027 h 3.99976 v -4.00027 h 4.000288 v 4.00027 h 3.999732 v -4.00027 h 4.00029 v 4.00027 h 3.99976 v -4.00027 h 4.00026 v 4.00027 h 3.99976 v -4.00027 h 4.00026 v 4.00027 h 3.99976 v -4.00027 h 4.00029 v 4.00027 h 3.99976 v -4.00027 h 3.99973 v 4.00027 h 4.00029 v -4.00027 h 3.99976 v 4.00027 H 165.325 v -44.00041 h -18.32496 v 3.99975 h -3.99976 v -3.99975 h -4.00029 v 3.99975 h -3.99973 v -3.99975 h -3.99976 v 3.99975 h -4.00029 v -3.99975 h -3.99976 v 3.99975 h -4.00026 v -3.99975 h -3.99976 v 3.99975 h -4.00026 v -3.99975 h -3.99976 v 3.99975 h -4.00029 v -3.99975 h -3.999732 v 3.99975 H 95.0001 v -3.99975 h -3.99976 v 3.99975 h -4.000261 v -3.99975 h -3.99976 v 3.99975 h -4.000261 v -3.99975 h -3.999759 v 3.99975 H 71.00001 v -3.99975 h -3.999759 v 3.99975 h -4.000262 v -3.99975 z m 112.165759,2.52491 a 3.55,3.55 0 0 1 0.0346,0 3.55,3.55 0 0 1 3.55018,3.55017 3.55,3.55 0 0 1 -3.55018,3.54965 3.55,3.55 0 0 1 -3.54965,-3.54965 3.55,3.55 0 0 1 3.51501,-3.55017 z M 53.125131,129.05 a 3.55,3.55 0 0 1 3.54965,3.54965 3.55,3.55 0 0 1 -3.54965,3.55017 3.55,3.55 0 0 1 -3.550153,-3.55017 3.55,3.55 0 0 1 3.550153,-3.54965 z m 39.624978,7.0497 h 24.500311 c 2.21599,0 3.99976,1.78427 3.99976,4.00027 v 16.80001 c 0,2.216 -1.78377,3.99975 -3.99976,3.99975 H 92.750109 c -2.215991,0 -3.999759,-1.78375 -3.999759,-3.99975 v -16.80001 c 0,-2.216 1.783768,-4.00027 3.999759,-4.00027 z m -19.76366,0.30024 a 4.1,4.1 0 0 1 0.04704,0 4.1,4.1 0 0 1 4.10001,4.10001 4.1,4.1 0 0 1 -4.10001,4.1 4.1,4.1 0 0 1 -4.10001,-4.1 4.1,4.1 0 0 1 4.052967,-4.10001 z m 11.761576,11.03343 a 1.7499999,1.7499999 0 0 1 0.0021,0 1.7499999,1.7499999 0 0 1 1.750272,1.74977 1.7499999,1.7499999 0 0 1 -1.750272,1.75028 1.7499999,1.7499999 0 0 1 -1.749769,-1.75028 1.7499999,1.7499999 0 0 1 1.747706,-1.74977 z m 39.999625,0 a 1.7499999,1.7499999 0 0 1 0.003,0 1.7499999,1.7499999 0 0 1 1.74977,1.74977 1.7499999,1.7499999 0 0 1 -1.74977,1.75028 1.7499999,1.7499999 0 0 1 -1.74977,-1.75028 1.7499999,1.7499999 0 0 1 1.7472,-1.74977 z m -51.827347,4.96662 a 4.1,4.1 0 0 1 0.04704,0 4.1,4.1 0 0 1 4.10001,4.10001 4.1,4.1 0 0 1 -4.10001,4.09949 4.1,4.1 0 0 1 -4.10001,-4.09949 4.1,4.1 0 0 1 4.052967,-4.10001 z m 83.870847,8.42481 a 3.55,3.55 0 0 1 0.0346,0 3.55,3.55 0 0 1 3.54965,3.55017 3.55,3.55 0 0 1 -3.54965,3.54966 3.55,3.55 0 0 1 -3.55018,-3.54966 3.55,3.55 0 0 1 3.51554,-3.55017 z m -103.61641,0.0248 a 3.55,3.55 0 0 1 3.550179,3.55017 3.55,3.55 0 0 1 -3.550179,3.55017 3.55,3.55 0 0 1 -3.54965,-3.55017 3.55,3.55 0 0 1 3.54965,-3.55017 z" />
    </g>
    <path
       id="rect2139"
       style="fill:#000000;fill-opacity:1;stroke:none;stroke-width:0.1;stroke-miterlimit:3.59854;stroke-dasharray:none;stroke-dashoffset:5;stroke-opacity:1"
       d="M 80.00005,48.00042 V 4 H 76.0003 V 7.99976 H 72.00003 V 4 H 68.00027 V 7.99976 H 64 V 4 H 60.00024 V 7.99976 H 55.99997 V 4 H 52.00021 V 7.99976 H 48.00046 V 4 H 44.00019 V 7.99976 H 40.00044 V 4 H 36.00017 V 7.99976 H 32.00041 V 4 H 28.00014 V 7.99976 H 24.000375 V 4 h -4.00027 v 3.99976 h -3.99976 V 4 h -4.00027 V 7.99976 H 8.000325 V 4 h -4.00028 v 44.00042 h 4.00028 v -4.00027 h 3.99975 v 4.00027 h 4.00027 v -4.00027 h 3.99976 v 4.00027 h 4.00027 v -4.00027 h 3.999765 v 4.00027 h 4.00027 v -4.00027 h 3.99976 v 4.00027 h 4.00027 v -4.00027 h 3.99975 v 4.00027 h 4.00027 v -4.00027 h 3.99975 v 4.00027 h 3.99976 v -4.00027 h 4.00027 v 4.00027 H 64 v -4.00027 h 4.00027 v 4.00027 h 3.99976 v -4.00027 h 4.00027 v 4.00027 z M 53.00015,36.00012 H 31.00046 c -1.662,0 -3.00033,-1.33834 -3.00033,-3.00034 V 19.00012 c 0,-1.662 1.33833,-3.00033 3.00033,-3.00033 h 21.99969 c 1.662,0 3.00034,1.33833 3.00033,3.00033 v 13.99966 c 0,1.662 -1.33833,3.00034 -3.00033,3.00034 z m 9.00255,-8.92504 a 1.7499999,1.7499999 0 0 1 -0.003,0 1.7499999,1.7499999 0 0 1 -1.74976,-1.74976 1.7499999,1.7499999 0 0 1 1.74976,-1.75028 1.7499999,1.7499999 0 0 1 1.75028,1.75028 1.7499999,1.7499999 0 0 1 -1.74769,1.74976 z m -40.000135,0 a 1.7499999,1.7499999 0 0 1 -0.003,0 1.7499999,1.7499999 0 0 1 -1.74977,-1.74976 1.7499999,1.7499999 0 0 1 1.74977,-1.75028 1.7499999,1.7499999 0 0 1 1.75028,1.75028 1.7499999,1.7499999 0 0 1 -1.7477,1.74976 z" />
    <path
       id="rect2139-6-1-2"
       style="display:inline;fill:#000000;fill-opacity:1;stroke:none;stroke-width:0.1;stroke-miterlimit:3.59854;stroke-dasharray:none;stroke-dashoffset:5;stroke-opacity:1"
       d="m 4,91.99976 h 4.00028 v 4.00027 h 3.99975 v -4.00027 h 4.00027 v 4.00027 h 3.99976 v -4.00027 h 4.00027 v 4.00027 h 3.99976 v -4.00027 h 4.00027 v 4.00027 h 3.99976 v -4.00027 h 4.00027 v 4.00027 h 3.99975 v -4.00027 h 4.00027 v 4.00027 h 3.99976 v -4.00027 h 4.00029 v 4.00027 h 3.99973 v -4.00027 h 4.00029 v 4.00027 h 3.99976 V 91.99976 H 72 v 4.00027 h 4.00026 v -4.00027 h 3.99976 v 4.00027 h 4.00026 v -4.00027 h 3.99976 v 4.00027 h 4.00029 v -4.00027 h 3.99973 v 4.00027 h 4.00029 v -4.00027 h 3.99976 v 4.00027 h 4.00026 v -4.00027 h 3.99976 v 4.00027 h 4.00026 v -4.00027 h 3.99976 V 55.99989 h -3.99976 v -4.00027 h -4.00026 v 4.00027 h -3.99976 v -4.00027 h -4.00026 v 4.00027 h -3.99976 v -4.00027 h -4.00029 v 4.00027 h -3.99973 v -4.00027 h -4.00029 v 4.00027 h -3.99976 v -4.00027 h -4.00026 v 4.00027 H 76.00026 V 51.99962 H 72 v 4.00027 h -3.99976 v -4.00027 h -3.99976 v 4.00027 h -4.00029 v -4.00027 h -3.99973 v 4.00027 h -4.00029 v -4.00027 h -3.99976 v 4.00027 h -4.00027 v -4.00027 h -3.99975 v 4.00027 h -4.00027 v -4.00027 h -3.99976 v 4.00027 h -4.00027 v -4.00027 h -3.99976 v 4.00027 H 20.00006 V 51.99962 H 16.0003 v 4.00027 H 12.00003 V 51.99962 H 8.00028 v 4.00027 H 4 Z" />
    <g
       id="layer1-4"
       transform="rotate(90,90.750039,127.7374)">
      <path
         id="rect2661-3"
         style="display:inline;fill:#000000;fill-opacity:1;stroke:none;stroke-width:0.125326;stroke-miterlimit:3.59854;stroke-dasharray:none;stroke-dashoffset:5;stroke-opacity:1"
         d="M 63.012641,82.512556 V 214.48744 H 146.98736 V 82.512556 Z m 4.000272,3.987353 h 4.000273 v 3.999756 h -4.000273 z m 8.000029,0 h 4.000272 v 3.999756 h -4.000272 z m 8.000029,0 h 4.000272 v 3.999756 h -4.000272 z m 8.000026,0 h 4.000275 v 3.999756 h -4.000275 z m 8.000029,0 h 4.000274 v 3.999756 h -4.000274 z m 8.000024,0 h 4.00028 v 3.999756 h -4.00028 z m 8.00003,0 h 4.00028 v 3.999756 h -4.00028 z m 8.00003,0 h 4.00028 v 3.999756 h -4.00028 z m 8.00003,0 h 3.99976 v 3.999756 h -3.99976 z m 8.00003,0 h 3.99975 v 3.999756 h -3.99975 z m -71.999741,8.000029 h 3.999757 v 3.999754 h -3.999757 z m 71.999741,0 h 4.00027 v 3.999754 h -4.00027 z m -61.999835,0.762227 a 1.2499999,1.2499999 0 0 1 1.250053,1.250053 1.2499999,1.2499999 0 0 1 -1.250053,1.250053 1.2499999,1.2499999 0 0 1 -1.25005,-1.250053 1.2499999,1.2499999 0 0 1 1.25005,-1.250053 z m 55.999685,0 a 1.2499999,1.2499999 0 0 1 1.25005,1.250053 1.2499999,1.2499999 0 0 1 -1.25005,1.250053 1.2499999,1.2499999 0 0 1 -1.25005,-1.250053 1.2499999,1.2499999 0 0 1 1.25005,-1.250053 z m -65.999591,7.237795 h 3.999757 v 3.99976 h -3.999757 z m 71.999741,0 h 4.00027 v 3.99976 h -4.00027 z m -71.999741,8.00003 h 3.999757 v 3.99976 h -3.999757 z m 71.999741,0 h 4.00027 v 3.99976 h -4.00027 z m -72.000257,8.00003 h 4.000273 v 3.99976 h -4.000273 z m 72.000257,0 h 3.99975 v 3.99976 h -3.99975 z m -71.999741,8.00003 h 3.999757 v 3.99976 h -3.999757 z m 71.999741,0 h 4.00027 v 3.99976 h -4.00027 z m -71.999741,8.00003 h 3.999757 v 3.99975 h -3.999757 z m 71.999741,0 h 4.00027 v 3.99975 h -4.00027 z m -71.999741,8.00003 h 3.999757 v 3.99975 h -3.999757 z m 71.999741,0 h 4.00027 v 3.99975 h -4.00027 z m -72.000257,7.99951 h 4.000273 v 4.00027 h -4.000273 z m 72.000257,0 h 3.99975 v 4.00027 h -3.99975 z m -72.000257,8.00003 h 4.000273 v 4.00027 h -4.000273 z m 72.000257,0 h 3.99975 v 4.00027 h -3.99975 z m -72.000257,8.00003 h 4.000273 v 4.00027 h -4.000273 z m 72.000257,0 h 3.99975 v 4.00027 h -3.99975 z m -71.999741,8.00002 h 3.999757 v 4.00028 h -3.999757 z m 71.999741,0 h 4.00027 v 4.00028 h -4.00027 z m -71.999741,8.00003 h 3.999757 V 186.5 h -3.999757 z m 71.999741,0 h 4.00027 V 186.5 h -4.00027 z m -71.999741,8.00003 h 3.999757 v 4.00027 h -3.999757 z m 71.999741,0 h 4.00027 v 4.00027 h -4.00027 z m -72.000257,8.00003 h 4.000273 v 4.00027 h -4.000273 z m 72.000257,0 h 3.99975 v 4.00027 h -3.99975 z m -62.029289,0.76274 a 1.2499999,1.2499999 0 0 1 0.02945,0 1.2499999,1.2499999 0 0 1 1.250053,1.24954 1.2499999,1.2499999 0 0 1 -1.250053,1.25005 1.2499999,1.2499999 0 0 1 -1.25005,-1.25005 1.2499999,1.2499999 0 0 1 1.220596,-1.24954 z m 56.000199,0 a 1.2499999,1.2499999 0 0 1 0.0289,0 1.2499999,1.2499999 0 0 1 1.25005,1.24954 1.2499999,1.2499999 0 0 1 -1.25005,1.25005 1.2499999,1.2499999 0 0 1 -1.25005,-1.25005 1.2499999,1.2499999 0 0 1 1.22111,-1.24954 z m -65.970651,7.23729 h 3.999757 v 4.00027 h -3.999757 z m 7.999513,0 h 4.000272 v 3.99975 h -4.000272 z m 8.000029,0 h 4.000272 v 3.99975 h -4.000272 z m 8.000026,0 h 4.000275 v 3.99975 h -4.000275 z m 8.000029,0 h 4.000274 v 4.00027 h -4.000274 z m 8.000024,0 h 4.00028 v 3.99975 h -4.00028 z m 8.00003,0 h 4.00028 v 3.99975 h -4.00028 z m 8.00003,0 h 4.00028 v 3.99975 h -4.00028 z m 8.00003,0 h 3.99976 v 4.00027 h -3.99976 z m 8.00003,0 h 3.99975 v 3.99975 h -3.99975 z" />
      <circle
         r="3"
         cy="96.49987"
         cx="77.013161"
         id="path956-3-6-0"
         style="display:inline;fill:#ff0000;fill-opacity:1;stroke:none;stroke-width:0.1;stroke-linecap:square;stroke-linejoin:miter;stroke-miterlimit:3.55905;stroke-dasharray:none;stroke-dashoffset:5;stroke-opacity:1;paint-order:fill markers stroke" />
      <circle
         r="3"
         cy="200.49988"
         cx="133.01314"
         id="path956-3-6-5-1"
         style="display:inline;fill:#ff0000;fill-opacity:1;stroke:none;stroke-width:0.1;stroke-linecap:square;stroke-linejoin:miter;stroke-miterlimit:3.55905;stroke-dasharray:none;stroke-dashoffset:5;stroke-opacity:1;paint-order:fill markers stroke" />
      <circle
         r="3"
         cy="200.49988"
         cx="77.013161"
         id="path956-3-6-4-5"
         style="display:inline;fill:#ff0000;fill-opacity:1;stroke:none;stroke-width:0.1;stroke-linecap:square;stroke-linejoin:miter;stroke-miterlimit:3.55905;stroke-dasharray:none;stroke-dashoffset:5;stroke-opacity:1;paint-order:fill markers stroke" />
      <circle
         r="3"
         cy="96.499886"
         cx="133.01312"
         id="path956-3-6-3-7"
         style="display:inline;fill:#ff0000;fill-opacity:1;stroke:none;stroke-width:0.1;stroke-linecap:square;stroke-linejoin:miter;stroke-miterlimit:3.55905;stroke-dasharray:none;stroke-dashoffset:5;stroke-opacity:1;paint-order:fill markers stroke" />
    </g>
    <path
       id="rect2139-6-1-2-5"
       style="display:inline;fill:#000000;fill-opacity:1;stroke:none;stroke-width:0.1;stroke-miterlimit:3.59854;stroke-dasharray:none;stroke-dashoffset:5;stroke-opacity:1"
       d="m 123.99996,92 h 4.00028 v 4.00027 h 3.99975 V 92 h 4.00027 v 4.00027 h 3.99976 V 92 h 4.00027 v 4.00027 h 3.99976 V 92 h 4.00027 v 4.00027 h 3.99976 V 92 h 4.00027 v 4.00027 h 3.99975 V 92 h 4.00027 v 4.00027 h 3.99976 V 92 h 4.00029 v 4.00027 h 3.99973 V 92 h 4.00029 v 4.00027 h 3.99976 V 92 h 3.99976 v 4.00027 h 4.00026 V 92 h 3.99976 v 4.00027 h 4.00026 V 92 H 208 v 4.00027 h 4.00029 V 92 h 3.99973 v 4.00027 h 4.00029 V 92 h 3.99976 v 4.00027 h 4.00026 V 92 h 3.99976 v 4.00027 h 4.00026 V 92 h 3.99976 V 56.00013 h -3.99976 v -4.00027 h -4.00026 v 4.00027 h -3.99976 v -4.00027 h -4.00026 v 4.00027 h -3.99976 v -4.00027 h -4.00029 v 4.00027 h -3.99973 V 51.99986 H 208 v 4.00027 h -3.99976 v -4.00027 h -4.00026 v 4.00027 h -3.99976 v -4.00027 h -4.00026 v 4.00027 h -3.99976 v -4.00027 h -3.99976 v 4.00027 h -4.00029 v -4.00027 h -3.99973 v 4.00027 h -4.00029 v -4.00027 h -3.99976 v 4.00027 h -4.00027 v -4.00027 h -3.99975 v 4.00027 h -4.00027 v -4.00027 h -3.99976 v 4.00027 h -4.00027 v -4.00027 h -3.99976 v 4.00027 h -4.00027 v -4.00027 h -3.99976 v 4.00027 h -4.00027 v -4.00027 h -3.99975 v 4.00027 h -4.00028 z" />
    <g
       id="layer1-4-4"
       transform="rotate(90,158.75004,195.7374)">
      <path
         id="rect2661-3-7"
         style="display:inline;fill:#000000;fill-opacity:1;stroke:none;stroke-width:0.125326;stroke-miterlimit:3.59854;stroke-dasharray:none;stroke-dashoffset:5;stroke-opacity:1"
         d="M 63.012641,82.512556 V 214.48744 H 146.98736 V 82.512556 Z m 4.000272,3.987353 h 4.000273 v 3.999756 h -4.000273 z m 8.000029,0 h 4.000272 v 3.999756 h -4.000272 z m 8.000029,0 h 4.000272 v 3.999756 h -4.000272 z m 8.000026,0 h 4.000275 v 3.999756 h -4.000275 z m 8.000029,0 h 4.000274 v 3.999756 h -4.000274 z m 8.000024,0 h 4.00028 v 3.999756 h -4.00028 z m 8.00003,0 h 4.00028 v 3.999756 h -4.00028 z m 8.00003,0 h 4.00028 v 3.999756 h -4.00028 z m 8.00003,0 h 3.99976 v 3.999756 h -3.99976 z m 8.00003,0 h 3.99975 v 3.999756 h -3.99975 z m -71.999741,8.000029 h 3.999757 v 3.999754 h -3.999757 z m 71.999741,0 h 4.00027 v 3.999754 h -4.00027 z m -61.999835,0.762227 a 1.2499999,1.2499999 0 0 1 1.250053,1.250053 1.2499999,1.2499999 0 0 1 -1.250053,1.250053 1.2499999,1.2499999 0 0 1 -1.25005,-1.250053 1.2499999,1.2499999 0 0 1 1.25005,-1.250053 z m 55.999685,0 a 1.2499999,1.2499999 0 0 1 1.25005,1.250053 1.2499999,1.2499999 0 0 1 -1.25005,1.250053 1.2499999,1.2499999 0 0 1 -1.25005,-1.250053 1.2499999,1.2499999 0 0 1 1.25005,-1.250053 z m -65.999591,7.237795 h 3.999757 v 3.99976 h -3.999757 z m 71.999741,0 h 4.00027 v 3.99976 h -4.00027 z m -71.999741,8.00003 h 3.999757 v 3.99976 h -3.999757 z m 71.999741,0 h 4.00027 v 3.99976 h -4.00027 z m -72.000257,8.00003 h 4.000273 v 3.99976 h -4.000273 z m 72.000257,0 h 3.99975 v 3.99976 h -3.99975 z m -71.999741,8.00003 h 3.999757 v 3.99976 h -3.999757 z m 71.999741,0 h 4.00027 v 3.99976 h -4.00027 z m -71.999741,8.00003 h 3.999757 v 3.99975 h -3.999757 z m 71.999741,0 h 4.00027 v 3.99975 h -4.00027 z m -71.999741,8.00003 h 3.999757 v 3.99975 h -3.999757 z m 71.999741,0 h 4.00027 v 3.99975 h -4.00027 z m -72.000257,7.99951 h 4.000273 v 4.00027 h -4.000273 z m 72.000257,0 h 3.99975 v 4.00027 h -3.99975 z m -72.000257,8.00003 h 4.000273 v 4.00027 h -4.000273 z m 72.000257,0 h 3.99975 v 4.00027 h -3.99975 z m -72.000257,8.00003 h 4.000273 v 4.00027 h -4.000273 z m 72.000257,0 h 3.99975 v 4.00027 h -3.99975 z m -71.999741,8.00002 h 3.999757 v 4.00028 h -3.999757 z m 71.999741,0 h 4.00027 v 4.00028 h -4.00027 z m -71.999741,8.00003 h 3.999757 V 186.5 h -3.999757 z m 71.999741,0 h 4.00027 V 186.5 h -4.00027 z m -71.999741,8.00003 h 3.999757 v 4.00027 h -3.999757 z m 71.999741,0 h 4.00027 v 4.00027 h -4.00027 z m -72.000257,8.00003 h 4.000273 v 4.00027 h -4.000273 z m 72.000257,0 h 3.99975 v 4.00027 h -3.99975 z m -62.029289,0.76274 a 1.2499999,1.2499999 0 0 1 0.02945,0 1.2499999,1.2499999 0 0 1 1.250053,1.24954 1.2499999,1.2499999 0 0 1 -1.250053,1.25005 1.2499999,1.2499999 0 0 1 -1.25005,-1.25005 1.2499999,1.2499999 0 0 1 1.220596,-1.24954 z m 56.000199,0 a 1.2499999,1.2499999 0 0 1 0.0289,0 1.2499999,1.2499999 0 0 1 1.25005,1.24954 1.2499999,1.2499999 0 0 1 -1.25005,1.25005 1.2499999,1.2499999 0 0 1 -1.25005,-1.25005 1.2499999,1.2499999 0 0 1 1.22111,-1.24954 z m -65.970651,7.23729 h 3.999757 v 4.00027 h -3.999757 z m 7.999513,0 h 4.000272 v 3.99975 h -4.000272 z m 8.000029,0 h 4.000272 v 3.99975 h -4.000272 z m 8.000026,0 h 4.000275 v 3.99975 h -4.000275 z m 8.000029,0 h 4.000274 v 4.00027 h -4.000274 z m 8.000024,0 h 4.00028 v 3.99975 h -4.00028 z m 8.00003,0 h 4.00028 v 3.99975 h -4.00028 z m 8.00003,0 h 4.00028 v 3.99975 h -4.00028 z m 8.00003,0 h 3.99976 v 4.00027 h -3.99976 z m 8.00003,0 h 3.99975 v 3.99975 h -3.99975 z" />
      <circle
         r="3"
         cy="96.49987"
         cx="77.013161"
         id="path956-3-6-0-6"
         style="display:inline;fill:#ff0000;fill-opacity:1;stroke:none;stroke-width:0.1;stroke-linecap:square;stroke-linejoin:miter;stroke-miterlimit:3.55905;stroke-dasharray:none;stroke-dashoffset:5;stroke-opacity:1;paint-order:fill markers stroke" />
      <circle
         r="3"
         cy="200.49988"
         cx="133.01314"
         id="path956-3-6-5-1-5"
         style="display:inline;fill:#ff0000;fill-opacity:1;stroke:none;stroke-width:0.1;stroke-linecap:square;stroke-linejoin:miter;stroke-miterlimit:3.55905;stroke-dasharray:none;stroke-dashoffset:5;stroke-opacity:1;paint-order:fill markers stroke" />
      <circle
         r="3"
         cy="200.49988"
         cx="77.013161"
         id="path956-3-6-4-5-6"
         style="display:inline;fill:#ff0000;fill-opacity:1;stroke:none;stroke-width:0.1;stroke-linecap:square;stroke-linejoin:miter;stroke-miterlimit:3.55905;stroke-dasharray:none;stroke-dashoffset:5;stroke-opacity:1;paint-order:fill markers stroke" />
      <circle
         r="3"
         cy="96.499886"
         cx="133.01312"
         id="path956-3-6-3-7-9"
         style="display:inline;fill:#ff0000;fill-opacity:1;stroke:none;stroke-width:0.1;stroke-linecap:square;stroke-linejoin:miter;stroke-miterlimit:3.55905;stroke-dasharray:none;stroke-dashoffset:5;stroke-opacity:1;paint-order:fill markers stroke" />
    </g>
  </g>
</svg>
