<?xml version="1.0" encoding="UTF-8" standalone="no"?>
<svg
   xmlns:dc="http://purl.org/dc/elements/1.1/"
   xmlns:cc="http://creativecommons.org/ns#"
   xmlns:rdf="http://www.w3.org/1999/02/22-rdf-syntax-ns#"
   xmlns:svg="http://www.w3.org/2000/svg"
   xmlns="http://www.w3.org/2000/svg"
   width="210mm"
   height="297mm"
   viewBox="0 0 210 297"
   version="1.1"
   id="svg4541">
  <defs
     id="defs4535" />
  <metadata
     id="metadata4538">
    <rdf:RDF>
      <cc:Work
         rdf:about="">
        <dc:format>image/svg+xml</dc:format>
        <dc:type
           rdf:resource="http://purl.org/dc/dcmitype/StillImage" />
        <dc:title></dc:title>
      </cc:Work>
    </rdf:RDF>
  </metadata>
  <g
     id="layer1">
    <path
       id="rect2139"
       style="fill:none;fill-opacity:1;stroke:#000000;stroke-width:0.1;stroke-miterlimit:3.59854;stroke-dasharray:none;stroke-dashoffset:5;stroke-opacity:1"
       d="m 67,126.49979 v 44.00042 h 4.000262 v -3.99976 h 3.999759 v 3.99976 h 4.000262 v -3.99976 h 3.999759 v 3.99976 h 4.000288 v -3.99976 h 3.999733 v 3.99976 h 4.000288 v -3.99976 h 3.999759 v 3.99976 h 4.00026 v -3.99976 h 3.99976 v 3.99976 h 4.00026 v -3.99976 h 3.99976 v 3.99976 h 4.00029 v -3.99976 h 3.99973 v 3.99976 h 4.00029 v -3.99976 h 3.99976 v 3.99976 h 4.00026 v -3.99976 h 3.99976 v 3.99976 H 143 v -44.00042 h -3.99976 v 4.00027 h -3.99976 v -4.00027 h -12.00031 v 4.00027 h -3.99973 v -4.00027 h -4.00029 v 4.00027 h -3.99976 v -4.00027 h -4.00026 v 4.00027 h -3.99976 v -4.00027 H 91.000063 v 4.00027 H 87.00033 v -4.00027 h -4.000288 v 4.00027 h -3.999759 v -4.00027 h -4.000262 v 4.00027 h -3.999759 v -4.00027 z m 28.000351,5.2e-4 h 3.999759 v 3.99975 h -3.999759 z m 32.000109,0 h 3.99976 v 3.99975 h -3.99976 z m -33.000049,11.99978 h 21.999679 c 1.66201,0 3.00035,1.33834 3.00035,3.00034 v 13.99966 c 0,1.662 -1.33834,3.00033 -3.00035,3.00033 H 94.000411 c -1.662007,0 -3.000348,-1.33833 -3.000348,-3.00033 v -13.99966 c 0,-1.662 1.338341,-3.00034 3.000348,-3.00034 z m -9.002554,8.92504 a 1.7499999,1.7499999 0 0 1 0.0026,0 1.7499999,1.7499999 0 0 1 1.749743,1.74976 1.7499999,1.7499999 0 0 1 -1.749743,1.75028 1.7499999,1.7499999 0 0 1 -1.750298,-1.75028 1.7499999,1.7499999 0 0 1 1.747705,-1.74976 z m 40.000133,0 a 1.7499999,1.7499999 0 0 1 0.002,0 1.7499999,1.7499999 0 0 1 1.7503,1.74976 1.7499999,1.7499999 0 0 1 -1.7503,1.75028 1.7499999,1.7499999 0 0 1 -1.74974,-1.75028 1.7499999,1.7499999 0 0 1 1.74768,-1.74976 z" />
  </g>
</svg>
