<?xml version="1.0" encoding="UTF-8" standalone="no"?>
<svg
   xmlns:dc="http://purl.org/dc/elements/1.1/"
   xmlns:cc="http://creativecommons.org/ns#"
   xmlns:rdf="http://www.w3.org/1999/02/22-rdf-syntax-ns#"
   xmlns:svg="http://www.w3.org/2000/svg"
   xmlns="http://www.w3.org/2000/svg"
   xmlns:sodipodi="http://sodipodi.sourceforge.net/DTD/sodipodi-0.dtd"
   xmlns:inkscape="http://www.inkscape.org/namespaces/inkscape"
   width="210mm"
   height="297mm"
   viewBox="0 0 210 297"
   version="1.1"
   id="svg4541"
   sodipodi:docname="back.svg"
   inkscape:version="1.0.2 (e86c870879, 2021-01-15)">
  <sodipodi:namedview
     pagecolor="#ffffff"
     bordercolor="#666666"
     borderopacity="1"
     objecttolerance="10"
     gridtolerance="10"
     guidetolerance="10"
     inkscape:pageopacity="0"
     inkscape:pageshadow="2"
     inkscape:window-width="1920"
     inkscape:window-height="1032"
     id="namedview7"
     showgrid="false"
     inkscape:zoom="0.78484147"
     inkscape:cx="396.85039"
     inkscape:cy="449.30294"
     inkscape:window-x="0"
     inkscape:window-y="0"
     inkscape:window-maximized="1"
     inkscape:current-layer="svg4541" />
  <defs
     id="defs4535" />
  <metadata
     id="metadata4538">
    <rdf:RDF>
      <cc:Work
         rdf:about="">
        <dc:format>image/svg+xml</dc:format>
        <dc:type
           rdf:resource="http://purl.org/dc/dcmitype/StillImage" />
        <dc:title />
      </cc:Work>
    </rdf:RDF>
  </metadata>
  <path
     id="rect2139"
     style="fill:none;fill-opacity:1;stroke:#000000;stroke-width:0.1;stroke-miterlimit:3.59854;stroke-dasharray:none;stroke-dashoffset:5;stroke-opacity:1"
     d="m 66.999995,126.49979 v 44.00042 h 3.999756 v -3.99976 h 4.000273 v 3.99976 h 3.999756 v -3.99976 h 4.000272 v 3.99976 h 3.999757 v -3.99976 h 4.000272 v 3.99976 h 3.999757 v -3.99976 h 3.999754 v 3.99976 h 4.000268 v -3.99976 h 3.99976 v 3.99976 h 4.00027 v -3.99976 h 3.99976 v 3.99976 h 4.00027 v -3.99976 h 3.99976 v 3.99976 h 4.00027 v -3.99976 h 3.99976 v 3.99976 h 4.00027 v -3.99976 h 3.99975 v 3.99976 h 4.00028 v -44.00042 h -4.00028 v 4.00027 h -3.99975 v -4.00027 h -4.00027 v 4.00027 h -3.99976 v -4.00027 h -4.00027 v 4.00027 h -3.99976 v -4.00027 h -4.00027 v 4.00027 h -3.99976 v -4.00027 h -4.00027 v 4.00027 h -3.99976 v -4.00027 h -4.000268 v 4.00027 h -3.999754 v -4.00027 h -3.999757 v 4.00027 h -4.000272 v -4.00027 h -3.999757 v 4.00027 H 78.99978 v -4.00027 h -3.999756 v 4.00027 h -4.000273 v -4.00027 z m 26.999903,12.0003 h 21.999692 c 1.662,0 3.00033,1.33834 3.00033,3.00034 v 13.99966 c 0,1.662 -1.33833,3.00033 -3.00033,3.00033 H 93.999898 c -1.662001,0 -3.000335,-1.33833 -3.000333,-3.00033 v -13.99966 c 0,-1.662 1.338332,-3.00034 3.000333,-3.00034 z m -9.002551,8.92504 a 1.7499999,1.7499999 0 0 1 0.0026,0 1.7499999,1.7499999 0 0 1 1.749767,1.74976 1.7499999,1.7499999 0 0 1 -1.749767,1.75028 1.7499999,1.7499999 0 0 1 -1.750279,-1.75028 1.7499999,1.7499999 0 0 1 1.747697,-1.74976 z m 40.000143,0 a 1.7499999,1.7499999 0 0 1 0.003,0 1.7499999,1.7499999 0 0 1 1.74977,1.74976 1.7499999,1.7499999 0 0 1 -1.74977,1.75028 1.7499999,1.7499999 0 0 1 -1.75028,-1.75028 1.7499999,1.7499999 0 0 1 1.7477,-1.74976 z" />
</svg>
