<?xml version="1.0" encoding="UTF-8" standalone="no"?>
<svg
   xmlns:dc="http://purl.org/dc/elements/1.1/"
   xmlns:cc="http://creativecommons.org/ns#"
   xmlns:rdf="http://www.w3.org/1999/02/22-rdf-syntax-ns#"
   xmlns:svg="http://www.w3.org/2000/svg"
   xmlns="http://www.w3.org/2000/svg"
   width="210mm"
   height="297mm"
   viewBox="0 0 210 297"
   version="1.1"
   id="svg6571">
  <defs
     id="defs6565" />
  <metadata
     id="metadata6568">
    <rdf:RDF>
      <cc:Work
         rdf:about="">
        <dc:format>image/svg+xml</dc:format>
        <dc:type
           rdf:resource="http://purl.org/dc/dcmitype/StillImage" />
        <dc:title></dc:title>
      </cc:Work>
    </rdf:RDF>
  </metadata>
  <g
     id="layer1">
    <path
       id="rect2661-3"
       style="display:inline;fill:#000000;fill-opacity:1;stroke:none;stroke-width:0.125326;stroke-miterlimit:3.59854;stroke-dasharray:none;stroke-dashoffset:5;stroke-opacity:1"
       d="M 63.012641,82.512556 V 214.48744 H 146.98736 V 82.512556 Z m 4.000272,3.987353 h 4.000273 v 3.999756 h -4.000273 z m 8.000029,0 h 4.000272 v 3.999756 h -4.000272 z m 8.000029,0 h 4.000272 v 3.999756 h -4.000272 z m 8.000026,0 h 4.000275 v 3.999756 h -4.000275 z m 8.000029,0 h 4.000274 v 3.999756 h -4.000274 z m 8.000024,0 h 4.00028 v 3.999756 h -4.00028 z m 8.00003,0 h 4.00028 v 3.999756 h -4.00028 z m 8.00003,0 h 4.00028 v 3.999756 h -4.00028 z m 8.00003,0 h 3.99976 v 3.999756 h -3.99976 z m 8.00003,0 h 3.99975 v 3.999756 h -3.99975 z m -71.999741,8.000029 h 3.999757 v 3.999754 h -3.999757 z m 71.999741,0 h 4.00027 v 3.999754 h -4.00027 z m -61.999835,0.762227 a 1.2499999,1.2499999 0 0 1 1.250053,1.250053 1.2499999,1.2499999 0 0 1 -1.250053,1.250053 1.2499999,1.2499999 0 0 1 -1.25005,-1.250053 1.2499999,1.2499999 0 0 1 1.25005,-1.250053 z m 55.999685,0 a 1.2499999,1.2499999 0 0 1 1.25005,1.250053 1.2499999,1.2499999 0 0 1 -1.25005,1.250053 1.2499999,1.2499999 0 0 1 -1.25005,-1.250053 1.2499999,1.2499999 0 0 1 1.25005,-1.250053 z m -65.999591,7.237795 h 3.999757 v 3.99976 h -3.999757 z m 71.999741,0 h 4.00027 v 3.99976 h -4.00027 z m -71.999741,8.00003 h 3.999757 v 3.99976 h -3.999757 z m 71.999741,0 h 4.00027 v 3.99976 h -4.00027 z m -72.000257,8.00003 h 4.000273 v 3.99976 h -4.000273 z m 72.000257,0 h 3.99975 v 3.99976 h -3.99975 z m -71.999741,8.00003 h 3.999757 v 3.99976 h -3.999757 z m 71.999741,0 h 4.00027 v 3.99976 h -4.00027 z m -71.999741,8.00003 h 3.999757 v 3.99975 h -3.999757 z m 71.999741,0 h 4.00027 v 3.99975 h -4.00027 z m -71.999741,8.00003 h 3.999757 v 3.99975 h -3.999757 z m 71.999741,0 h 4.00027 v 3.99975 h -4.00027 z m -72.000257,7.99951 h 4.000273 v 4.00027 h -4.000273 z m 72.000257,0 h 3.99975 v 4.00027 h -3.99975 z m -72.000257,8.00003 h 4.000273 v 4.00027 h -4.000273 z m 72.000257,0 h 3.99975 v 4.00027 h -3.99975 z m -72.000257,8.00003 h 4.000273 v 4.00027 h -4.000273 z m 72.000257,0 h 3.99975 v 4.00027 h -3.99975 z m -71.999741,8.00002 h 3.999757 v 4.00028 h -3.999757 z m 71.999741,0 h 4.00027 v 4.00028 h -4.00027 z m -71.999741,8.00003 h 3.999757 V 186.5 h -3.999757 z m 71.999741,0 h 4.00027 V 186.5 h -4.00027 z m -71.999741,8.00003 h 3.999757 v 4.00027 h -3.999757 z m 71.999741,0 h 4.00027 v 4.00027 h -4.00027 z m -72.000257,8.00003 h 4.000273 v 4.00027 h -4.000273 z m 72.000257,0 h 3.99975 v 4.00027 h -3.99975 z m -62.029289,0.76274 a 1.2499999,1.2499999 0 0 1 0.02945,0 1.2499999,1.2499999 0 0 1 1.250053,1.24954 1.2499999,1.2499999 0 0 1 -1.250053,1.25005 1.2499999,1.2499999 0 0 1 -1.25005,-1.25005 1.2499999,1.2499999 0 0 1 1.220596,-1.24954 z m 56.000199,0 a 1.2499999,1.2499999 0 0 1 0.0289,0 1.2499999,1.2499999 0 0 1 1.25005,1.24954 1.2499999,1.2499999 0 0 1 -1.25005,1.25005 1.2499999,1.2499999 0 0 1 -1.25005,-1.25005 1.2499999,1.2499999 0 0 1 1.22111,-1.24954 z m -65.970651,7.23729 h 3.999757 v 4.00027 h -3.999757 z m 7.999513,0 h 4.000272 v 3.99975 h -4.000272 z m 8.000029,0 h 4.000272 v 3.99975 h -4.000272 z m 8.000026,0 h 4.000275 v 3.99975 h -4.000275 z m 8.000029,0 h 4.000274 v 4.00027 h -4.000274 z m 8.000024,0 h 4.00028 v 3.99975 h -4.00028 z m 8.00003,0 h 4.00028 v 3.99975 h -4.00028 z m 8.00003,0 h 4.00028 v 3.99975 h -4.00028 z m 8.00003,0 h 3.99976 v 4.00027 h -3.99976 z m 8.00003,0 h 3.99975 v 3.99975 h -3.99975 z" />
    <circle
       r="3"
       cy="96.49987"
       cx="77.013161"
       id="path956-3-6-0"
       style="display:inline;fill:#ff0000;fill-opacity:1;stroke:none;stroke-width:0.1;stroke-linecap:square;stroke-linejoin:miter;stroke-miterlimit:3.55905;stroke-dasharray:none;stroke-dashoffset:5;stroke-opacity:1;paint-order:fill markers stroke" />
    <circle
       r="3"
       cy="200.49988"
       cx="133.01314"
       id="path956-3-6-5-1"
       style="display:inline;fill:#ff0000;fill-opacity:1;stroke:none;stroke-width:0.1;stroke-linecap:square;stroke-linejoin:miter;stroke-miterlimit:3.55905;stroke-dasharray:none;stroke-dashoffset:5;stroke-opacity:1;paint-order:fill markers stroke" />
    <circle
       r="3"
       cy="200.49988"
       cx="77.013161"
       id="path956-3-6-4-5"
       style="display:inline;fill:#ff0000;fill-opacity:1;stroke:none;stroke-width:0.1;stroke-linecap:square;stroke-linejoin:miter;stroke-miterlimit:3.55905;stroke-dasharray:none;stroke-dashoffset:5;stroke-opacity:1;paint-order:fill markers stroke" />
    <circle
       r="3"
       cy="96.499886"
       cx="133.01312"
       id="path956-3-6-3-7"
       style="display:inline;fill:#ff0000;fill-opacity:1;stroke:none;stroke-width:0.1;stroke-linecap:square;stroke-linejoin:miter;stroke-miterlimit:3.55905;stroke-dasharray:none;stroke-dashoffset:5;stroke-opacity:1;paint-order:fill markers stroke" />
  </g>
</svg>
