<?xml version="1.0" encoding="UTF-8" standalone="no"?>
<svg
   xmlns:dc="http://purl.org/dc/elements/1.1/"
   xmlns:cc="http://creativecommons.org/ns#"
   xmlns:rdf="http://www.w3.org/1999/02/22-rdf-syntax-ns#"
   xmlns:svg="http://www.w3.org/2000/svg"
   xmlns="http://www.w3.org/2000/svg"
   xmlns:sodipodi="http://sodipodi.sourceforge.net/DTD/sodipodi-0.dtd"
   xmlns:inkscape="http://www.inkscape.org/namespaces/inkscape"
   width="210mm"
   height="297mm"
   viewBox="0 0 210 297"
   version="1.1"
   id="svg6571"
   inkscape:version="1.0.2 (e86c870879, 2021-01-15)"
   sodipodi:docname="bottom.svg">
  <defs
     id="defs6565" />
  <sodipodi:namedview
     id="base"
     pagecolor="#ffffff"
     bordercolor="#666666"
     borderopacity="1.0"
     inkscape:pageopacity="0.0"
     inkscape:pageshadow="2"
     inkscape:zoom="0.302806"
     inkscape:cx="-566.09549"
     inkscape:cy="318.27517"
     inkscape:document-units="mm"
     inkscape:current-layer="layer1"
     inkscape:document-rotation="0"
     showgrid="false"
     inkscape:window-width="1920"
     inkscape:window-height="1032"
     inkscape:window-x="0"
     inkscape:window-y="0"
     inkscape:window-maximized="1" />
  <metadata
     id="metadata6568">
    <rdf:RDF>
      <cc:Work
         rdf:about="">
        <dc:format>image/svg+xml</dc:format>
        <dc:type
           rdf:resource="http://purl.org/dc/dcmitype/StillImage" />
        <dc:title></dc:title>
      </cc:Work>
    </rdf:RDF>
  </metadata>
  <g
     inkscape:label="Layer 1"
     inkscape:groupmode="layer"
     id="layer1">
    <g
       id="g7350"
       transform="translate(461.80974,273.98795)">
      <path
         id="rect2661"
         style="fill:none;fill-opacity:1;stroke:#000000;stroke-width:0.377953;stroke-miterlimit:3.59854;stroke-dasharray:none;stroke-dashoffset:5;stroke-opacity:1"
         d="m -1507.3125,-633.02539 v 317.48047 h 317.4805 v -317.48047 z m 15.1191,15.11719 h 15.1172 v 15.11914 h -15.1172 z m 30.2364,0 h 15.1172 v 15.11718 h -15.1172 z m 30.2363,0 h 15.1172 v 15.11718 h -15.1172 z m 30.2363,0 h 15.1172 v 15.11718 h -15.1172 z m 30.2364,0 h 15.1171 v 15.11914 h -15.1171 z m 30.2363,0 h 15.1172 v 15.11718 h -15.1172 z m 30.2363,0 h 15.1172 v 15.11718 h -15.1172 z m 30.2363,0 h 15.1172 v 15.11718 h -15.1172 z m 30.2344,0 h 15.1192 v 15.11914 h -15.1192 z m 30.2363,0 h 15.1192 v 15.11718 h -15.1192 z m -272.125,30.23632 h 15.1192 v 15.11915 h -15.1192 z m 272.127,0 h 15.1172 v 15.11915 h -15.1172 z m -234.4414,2.88282 a 4.7244093,4.7244093 0 0 1 0.1094,0 4.7244093,4.7244093 0 0 1 4.7246,4.72461 4.7244093,4.7244093 0 0 1 -4.7246,4.72265 4.7244093,4.7244093 0 0 1 -4.7246,-4.72265 4.7244093,4.7244093 0 0 1 4.6152,-4.72461 z m 211.6523,0 a 4.7244093,4.7244093 0 0 1 0.1114,0 4.7244093,4.7244093 0 0 1 4.7246,4.72461 4.7244093,4.7244093 0 0 1 -4.7246,4.72265 4.7244093,4.7244093 0 0 1 -4.7247,-4.72265 4.7244093,4.7244093 0 0 1 4.6133,-4.72461 z m -249.3379,27.35351 h 15.1192 v 15.11914 h -15.1192 z m 272.127,0 h 15.1172 v 15.11914 h -15.1172 z m -272.127,30.23633 h 15.1192 v 15.11914 h -15.1192 z m 272.127,0 h 15.1172 v 15.11914 h -15.1172 z m -272.127,30.23633 h 15.1172 v 15.11719 h -15.1172 z m 272.125,0 h 15.1192 v 15.11914 h -15.1192 z m -272.125,30.23633 h 15.1192 v 15.11718 h -15.1192 z m 272.127,0 h 15.1172 v 15.11718 h -15.1172 z m -272.127,30.23633 h 15.1192 v 15.11718 h -15.1192 z m 272.127,0 h 15.1172 v 15.11718 h -15.1172 z m -272.127,30.23632 h 15.1192 v 15.11719 h -15.1192 z m 272.127,0 h 15.1172 v 15.11719 h -15.1172 z m -272.127,30.23633 h 15.1172 v 15.11719 h -15.1172 z m 272.125,0 h 15.1192 v 15.11719 h -15.1192 z m -234.33,2.88086 a 4.7244093,4.7244093 0 0 1 4.7246,4.72461 4.7244093,4.7244093 0 0 1 -4.7246,4.72461 4.7244093,4.7244093 0 0 1 -4.7246,-4.72461 4.7244093,4.7244093 0 0 1 4.7246,-4.72461 z m 211.6543,0 a 4.7244093,4.7244093 0 0 1 4.7246,4.72461 4.7244093,4.7244093 0 0 1 -4.7246,4.72461 4.7244093,4.7244093 0 0 1 -4.7247,-4.72461 4.7244093,4.7244093 0 0 1 4.7247,-4.72461 z m -219.2129,27.35352 h 15.1172 v 15.11914 h -15.1172 z m 30.2363,0 h 15.1172 v 15.11914 h -15.1172 z m 30.2363,0 h 15.1172 v 15.11914 h -15.1172 z m 60.4727,0 h 15.1172 v 15.11914 h -15.1172 z m 30.2363,0 h 15.1172 v 15.11914 h -15.1172 z m 30.2363,0 h 15.1172 v 15.11914 h -15.1172 z m 60.4707,0 h 15.1192 v 15.11914 h -15.1192 z m -272.125,0.002 h 15.1172 v 15.11719 h -15.1172 z m 120.9454,0 h 15.1171 v 15.11719 h -15.1171 z m 120.9453,0 h 15.1172 v 15.11719 h -15.1172 z"
         transform="scale(0.26458333)" />
      <circle
         r="3"
         cy="-153.4881"
         cx="-384.80951"
         id="path956-3-6"
         style="fill:#000000;fill-opacity:1;stroke:none;stroke-width:0.1;stroke-linecap:square;stroke-linejoin:miter;stroke-miterlimit:3.55905;stroke-dasharray:none;stroke-dashoffset:5;stroke-opacity:1;paint-order:fill markers stroke" />
      <circle
         r="3"
         cy="-97.488098"
         cx="-328.80951"
         id="path956-3-6-5"
         style="fill:#000000;fill-opacity:1;stroke:none;stroke-width:0.1;stroke-linecap:square;stroke-linejoin:miter;stroke-miterlimit:3.55905;stroke-dasharray:none;stroke-dashoffset:5;stroke-opacity:1;paint-order:fill markers stroke" />
      <circle
         r="3"
         cy="-97.488113"
         cx="-384.80951"
         id="path956-3-6-4"
         style="fill:#000000;fill-opacity:1;stroke:none;stroke-width:0.1;stroke-linecap:square;stroke-linejoin:miter;stroke-miterlimit:3.55905;stroke-dasharray:none;stroke-dashoffset:5;stroke-opacity:1;paint-order:fill markers stroke" />
      <circle
         r="3"
         cy="-153.48808"
         cx="-328.80954"
         id="path956-3-6-3"
         style="fill:#000000;fill-opacity:1;stroke:none;stroke-width:0.1;stroke-linecap:square;stroke-linejoin:miter;stroke-miterlimit:3.55905;stroke-dasharray:none;stroke-dashoffset:5;stroke-opacity:1;paint-order:fill markers stroke" />
    </g>
  </g>
</svg>
