<?xml version="1.0" encoding="UTF-8" standalone="no"?>
<svg
   xmlns:dc="http://purl.org/dc/elements/1.1/"
   xmlns:cc="http://creativecommons.org/ns#"
   xmlns:rdf="http://www.w3.org/1999/02/22-rdf-syntax-ns#"
   xmlns:svg="http://www.w3.org/2000/svg"
   xmlns="http://www.w3.org/2000/svg"
   width="210mm"
   height="297mm"
   viewBox="0 0 210 297"
   version="1.1"
   id="svg3582">
  <defs
     id="defs3576" />
  <metadata
     id="metadata3579">
    <rdf:RDF>
      <cc:Work
         rdf:about="">
        <dc:format>image/svg+xml</dc:format>
        <dc:type
           rdf:resource="http://purl.org/dc/dcmitype/StillImage" />
        <dc:title></dc:title>
      </cc:Work>
    </rdf:RDF>
  </metadata>
  <path
     id="rect1265-3"
     style="display:inline;fill:#000000;fill-opacity:1;stroke:none;stroke-width:0.1;stroke-miterlimit:3.59854;stroke-dasharray:none;stroke-dashoffset:5;stroke-opacity:1"
     d="m 0,0 v 44.000417 h 18.324978 v -3.99976 h 4.000275 v 3.99976 h 3.999754 v -3.99976 h 4.000272 v 3.99976 h 3.999757 v -3.99976 h 4.000272 v 3.99976 h 3.999757 v -3.99976 h 4.000272 v 3.99976 h 3.999756 v -3.99976 h 4.000273 v 3.99976 h 3.999756 v -3.99976 h 3.999754 v 3.99976 h 4.000273 v -3.99976 h 3.999756 v 3.99976 h 4.000272 v -3.99976 h 3.999757 v 3.99976 h 4.000272 v -3.99976 h 3.999757 v 3.99976 h 4.000272 v -3.99976 h 3.999757 v 3.99976 h 4.000272 v -3.99976 h 3.999756 v 3.99976 H 120.65 V 0 H 102.32502 V 4.000273 H 98.325264 V 0 H 94.324992 V 4.000273 H 90.325235 V 0 H 86.324963 V 4.000273 H 82.325206 V 0 H 78.324934 V 4.000273 H 74.325177 V 0 H 70.324905 V 4.000273 H 66.325149 V 0 H 62.324876 V 4.000273 H 58.325122 V 0 H 54.325366 V 4.000273 H 50.325093 V 0 H 46.325337 V 4.000273 H 42.325065 V 0 H 38.325308 V 4.000273 H 34.325036 V 0 H 30.325279 V 4.000273 H 26.325007 V 0 H 22.325253 V 4.000273 H 18.324978 V 0 Z m 112.16576,2.525427 a 3.55,3.55 0 0 1 0.0346,0 3.55,3.55 0 0 1 3.55018,3.549655 3.55,3.55 0 0 1 -3.55018,3.550169 3.55,3.55 0 0 1 -3.55017,-3.550169 3.55,3.55 0 0 1 3.51555,-3.549655 z M 8.4496142,2.550232 A 3.55,3.55 0 0 1 11.999783,6.100403 3.55,3.55 0 0 1 8.4496142,9.650058 3.55,3.55 0 0 1 4.8999589,6.100403 3.55,3.55 0 0 1 8.4496142,2.550232 Z M 57.075069,9.600449 h 24.499795 c 2.215999,0 4.000272,1.783754 4.000272,3.999754 v 16.800014 c 0,2.21599 -1.784273,4.00027 -4.000272,4.00027 H 57.075069 c -2.216002,0 -3.999756,-1.78428 -3.999756,-4.00027 V 13.600203 c 0,-2.216 1.783754,-3.999757 3.999756,-3.999754 z M 40.325704,9.900171 a 4.1,4.1 0 0 1 4.100007,4.100007 4.1,4.1 0 0 1 -4.100007,4.10001 4.1,4.1 0 0 1 -4.10001,-4.10001 4.1,4.1 0 0 1 4.10001,-4.100007 z m 8.747267,11.033435 a 1.7499999,1.7499999 0 0 1 0.0021,0 1.7499999,1.7499999 0 0 1 1.75028,1.750279 1.7499999,1.7499999 0 0 1 -1.75028,1.749762 1.7499999,1.7499999 0 0 1 -1.749763,-1.749762 1.7499999,1.7499999 0 0 1 1.747694,-1.750279 z m 39.999626,0 a 1.7499999,1.7499999 0 0 1 0.0026,0 1.7499999,1.7499999 0 0 1 1.749764,1.750279 1.7499999,1.7499999 0 0 1 -1.749764,1.749762 1.7499999,1.7499999 0 0 1 -1.750282,-1.749762 1.7499999,1.7499999 0 0 1 1.747697,-1.750279 z m -48.746893,4.966621 a 4.1,4.1 0 0 1 4.100007,4.10001 4.1,4.1 0 0 1 -4.100007,4.10001 4.1,4.1 0 0 1 -4.10001,-4.10001 4.1,4.1 0 0 1 4.10001,-4.10001 z m 71.824556,8.42481 a 3.55,3.55 0 0 1 3.55017,3.55017 3.55,3.55 0 0 1 -3.55017,3.55017 3.55,3.55 0 0 1 -3.54966,-3.55017 3.55,3.55 0 0 1 3.54966,-3.55017 z m -103.6505205,0.0253 a 3.55,3.55 0 0 1 3.5501715,3.54965 3.55,3.55 0 0 1 -3.5501715,3.55018 3.55,3.55 0 0 1 -3.5501712,-3.55018 3.55,3.55 0 0 1 3.5501712,-3.54965 z" />
</svg>
