<?xml version="1.0" encoding="UTF-8" standalone="no"?>
<svg
   xmlns:dc="http://purl.org/dc/elements/1.1/"
   xmlns:cc="http://creativecommons.org/ns#"
   xmlns:rdf="http://www.w3.org/1999/02/22-rdf-syntax-ns#"
   xmlns:svg="http://www.w3.org/2000/svg"
   xmlns="http://www.w3.org/2000/svg"
   width="210mm"
   height="297mm"
   viewBox="0 0 210 297"
   version="1.1"
   id="svg3582">
  <defs
     id="defs3576" />
  <metadata
     id="metadata3579">
    <rdf:RDF>
      <cc:Work
         rdf:about="">
        <dc:format>image/svg+xml</dc:format>
        <dc:type
           rdf:resource="http://purl.org/dc/dcmitype/StillImage" />
        <dc:title></dc:title>
      </cc:Work>
    </rdf:RDF>
  </metadata>
  <g
     id="layer1">
    <path
       id="rect1265"
       style="fill:none;fill-opacity:1;stroke:#000000;stroke-width:0.1;stroke-miterlimit:3.59854;stroke-dasharray:none;stroke-dashoffset:5;stroke-opacity:1"
       d="m 44.675001,126.49979 v 44.00041 h 18.324988 v -4.00027 h 4.000262 v 4.00027 h 3.999759 v -4.00027 h 4.000289 v 4.00027 h 3.999759 v -4.00027 h 4.000261 v 4.00027 h 3.99976 v -4.00027 h 4.000261 v 4.00027 h 3.99976 v -4.00027 h 4.000288 v 4.00027 h 3.999732 v -4.00027 h 4.00029 v 4.00027 h 3.99976 v -4.00027 h 4.00026 v 4.00027 h 3.99976 v -4.00027 h 4.00026 v 4.00027 h 3.99976 v -4.00027 h 4.00029 v 4.00027 h 3.99976 v -4.00027 h 3.99973 v 4.00027 h 4.00029 v -4.00027 h 3.99976 v 4.00027 H 165.325 v -44.00041 h -18.32496 v 3.99975 h -3.99976 v -3.99975 h -4.00029 v 3.99975 h -3.99973 v -3.99975 h -3.99976 v 3.99975 h -4.00029 v -3.99975 h -3.99976 v 3.99975 h -4.00026 v -3.99975 h -3.99976 v 3.99975 h -4.00026 v -3.99975 h -3.99976 v 3.99975 h -4.00029 v -3.99975 h -3.999732 v 3.99975 H 95.0001 v -3.99975 h -3.99976 v 3.99975 h -4.000261 v -3.99975 h -3.99976 v 3.99975 h -4.000261 v -3.99975 h -3.999759 v 3.99975 H 71.00001 v -3.99975 h -3.999759 v 3.99975 h -4.000262 v -3.99975 z m 112.165759,2.52491 a 3.55,3.55 0 0 1 0.0346,0 3.55,3.55 0 0 1 3.55018,3.55017 3.55,3.55 0 0 1 -3.55018,3.54965 3.55,3.55 0 0 1 -3.54965,-3.54965 3.55,3.55 0 0 1 3.51501,-3.55017 z M 53.125131,129.05 a 3.55,3.55 0 0 1 3.54965,3.54965 3.55,3.55 0 0 1 -3.54965,3.55017 3.55,3.55 0 0 1 -3.550153,-3.55017 3.55,3.55 0 0 1 3.550153,-3.54965 z m 39.624978,7.0497 h 24.500311 c 2.21599,0 3.99976,1.78427 3.99976,4.00027 v 16.80001 c 0,2.216 -1.78377,3.99975 -3.99976,3.99975 H 92.750109 c -2.215991,0 -3.999759,-1.78375 -3.999759,-3.99975 v -16.80001 c 0,-2.216 1.783768,-4.00027 3.999759,-4.00027 z m -19.76366,0.30024 a 4.1,4.1 0 0 1 0.04704,0 4.1,4.1 0 0 1 4.10001,4.10001 4.1,4.1 0 0 1 -4.10001,4.1 4.1,4.1 0 0 1 -4.10001,-4.1 4.1,4.1 0 0 1 4.052967,-4.10001 z m 11.761576,11.03343 a 1.7499999,1.7499999 0 0 1 0.0021,0 1.7499999,1.7499999 0 0 1 1.750272,1.74977 1.7499999,1.7499999 0 0 1 -1.750272,1.75028 1.7499999,1.7499999 0 0 1 -1.749769,-1.75028 1.7499999,1.7499999 0 0 1 1.747706,-1.74977 z m 39.999625,0 a 1.7499999,1.7499999 0 0 1 0.003,0 1.7499999,1.7499999 0 0 1 1.74977,1.74977 1.7499999,1.7499999 0 0 1 -1.74977,1.75028 1.7499999,1.7499999 0 0 1 -1.74977,-1.75028 1.7499999,1.7499999 0 0 1 1.7472,-1.74977 z m -51.827347,4.96662 a 4.1,4.1 0 0 1 0.04704,0 4.1,4.1 0 0 1 4.10001,4.10001 4.1,4.1 0 0 1 -4.10001,4.09949 4.1,4.1 0 0 1 -4.10001,-4.09949 4.1,4.1 0 0 1 4.052967,-4.10001 z m 83.870847,8.42481 a 3.55,3.55 0 0 1 0.0346,0 3.55,3.55 0 0 1 3.54965,3.55017 3.55,3.55 0 0 1 -3.54965,3.54966 3.55,3.55 0 0 1 -3.55018,-3.54966 3.55,3.55 0 0 1 3.51554,-3.55017 z m -103.61641,0.0248 a 3.55,3.55 0 0 1 3.550179,3.55017 3.55,3.55 0 0 1 -3.550179,3.55017 3.55,3.55 0 0 1 -3.54965,-3.55017 3.55,3.55 0 0 1 3.54965,-3.55017 z" />
  </g>
</svg>
