<?xml version="1.0" encoding="UTF-8" standalone="no"?>
<svg
   xmlns:dc="http://purl.org/dc/elements/1.1/"
   xmlns:cc="http://creativecommons.org/ns#"
   xmlns:rdf="http://www.w3.org/1999/02/22-rdf-syntax-ns#"
   xmlns:svg="http://www.w3.org/2000/svg"
   xmlns="http://www.w3.org/2000/svg"
   width="210mm"
   height="297mm"
   viewBox="0 0 210 297"
   version="1.1"
   id="svg5708">
  <defs
     id="defs5702" />
  <metadata
     id="metadata5705">
    <rdf:RDF>
      <cc:Work
         rdf:about="">
        <dc:format>image/svg+xml</dc:format>
        <dc:type
           rdf:resource="http://purl.org/dc/dcmitype/StillImage" />
        <dc:title></dc:title>
      </cc:Work>
    </rdf:RDF>
  </metadata>
  <g
     id="layer1">
    <path
       id="rect2139-6"
       style="fill:none;fill-opacity:1;stroke:#000000;stroke-width:0.1;stroke-miterlimit:3.59854;stroke-dasharray:none;stroke-dashoffset:5;stroke-opacity:1"
       d="m 71.00001,166.50045 h 4.00027 v 3.99976 h 3.99976 v -3.99976 h 4.00027 v 3.99976 h 3.99976 v -3.99976 h 4.00027 v 3.99976 h 3.99976 v -3.99976 h 4.00027 v 3.99976 h 3.99975 v -3.99976 h 3.99976 v 3.99976 h 4.00027 v -3.99976 h 3.99976 v 3.99976 h 4.00027 v -3.99976 h 3.99976 v 3.99976 h 4.00027 v -3.99976 h 3.99976 v 3.99976 h 4.00027 v -3.99976 h 3.99975 v -36.0004 h -3.99975 v -4.00026 h -4.00027 v 4.00026 h -3.99976 v -4.00026 h -4.00027 v 4.00026 h -3.99976 v -4.00026 h -4.00027 v 4.00026 h -3.99976 v -4.00026 h -4.00027 v 4.00026 h -3.99976 v -4.00026 h -3.99975 v 4.00026 H 95.0001 v -4.00026 h -3.99976 v 4.00026 h -4.00027 v -4.00026 h -3.99976 v 4.00026 h -4.00027 v -4.00026 h -3.99976 v 4.00026 h -4.00027 z" />
  </g>
</svg>
